<?xml version="1.0" standalone="no"?>
<!DOCTYPE svg PUBLIC "-//W3C//DTD SVG 20010904//EN"
 "http://www.w3.org/TR/2001/REC-SVG-20010904/DTD/svg10.dtd">
<svg version="1.0" xmlns="http://www.w3.org/2000/svg"
 width="512.000000pt" height="512.000000pt" viewBox="0 0 512.000000 512.000000"
 preserveAspectRatio="xMidYMid meet">

<g transform="translate(0.000000,512.000000) scale(0.100000,-0.100000)"
fill="#000000" stroke="none">
<path d="M2200 5115 c-14 -2 -95 -9 -180 -15 -445 -32 -951 -149 -1327 -307
-147 -62 -216 -122 -272 -239 -48 -100 -91 -458 -91 -755 0 -364 39 -621 145
-950 61 -188 59 -167 60 -694 0 -412 3 -507 18 -599 43 -276 110 -464 208
-592 22 -28 83 -89 137 -135 53 -46 178 -156 277 -244 218 -194 245 -216 369
-299 295 -201 599 -286 1016 -286 417 0 721 85 1016 286 124 83 151 105 369
299 99 88 226 200 282 249 113 97 154 146 206 251 61 121 102 264 134 471 15
92 18 187 18 599 1 527 -1 506 60 694 106 329 145 586 145 950 0 317 -45 666
-97 762 -58 109 -120 159 -256 208 -417 153 -939 269 -1452 322 -173 18 -713
34 -785 24z m-670 -2025 c352 -54 604 -70 1080 -70 483 0 733 16 1095 71 148
22 241 22 291 -2 58 -28 95 -122 80 -204 -10 -51 -88 -130 -286 -288 -232
-186 -318 -264 -395 -360 -119 -149 -158 -255 -156 -429 1 -196 27 -307 127
-538 19 -45 29 -87 32 -135 3 -66 1 -73 -35 -134 -78 -130 -231 -239 -396
-281 -227 -57 -551 -52 -747 11 -168 55 -305 162 -368 288 -50 100 -46 130 36
321 59 136 79 217 94 372 15 160 3 251 -47 355 -75 159 -183 275 -475 508
-118 94 -234 193 -258 220 -66 75 -76 148 -31 237 41 80 122 93 359 58z"/>
</g>
</svg>
